<?xml version="1.0" encoding="utf-8"?>
<!-- Generator: Adobe Illustrator 19.2.1, SVG Export Plug-In . SVG Version: 6.00 Build 0)  -->
<svg version="1.1" id="Layer_1" xmlns="http://www.w3.org/2000/svg" xmlns:xlink="http://www.w3.org/1999/xlink" x="0px" y="0px"
	 viewBox="0 0 414 414" style="enable-background:new 0 0 414 414;" xml:space="preserve">
<style type="text/css">
	.st0{fill:#FFFFFF;}
	.st1{fill:#9BCD65;}
</style>
<g>
	<g>
		<g>
			<polygon class="st0" points="151.4,252.8 71.5,252.8 62.3,266.7 79.7,266.7 79.4,294.2 7.4,294.2 41.4,243.1 151.4,243.1 			"/>
			<polygon class="st0" points="125.1,119.1 58.7,217.5 151.4,217.5 151.4,208.5 101.2,208.5 143.1,147 143.1,119.1 			"/>
			<path class="st0" d="M290.5,242.9v52.2H317v-11.7c8.3,10.3,20.2,15.1,33.8,15.1c32.2,0,55.8-23.4,55.8-55.3
				c0-14.9-6.3-27.9-17.5-36.9c-11.2-8.5-24.1-12.4-37.8-16c-13.5-3.8-28.8-7.7-28.8-24.8c0-13.9,10.8-22.1,24.1-22.1
				c13.3,0,22.7,9.9,22.9,22.9h30.1v-47.2h-25.9v9.9c-7.4-9.4-19.4-13.5-31.3-13.5c-28.4,0-53.3,21.6-53.3,50.6
				c0,16,6.8,29.2,19.4,38.5c10.8,8.3,21.6,11.2,34.4,15.1c13.5,4.1,29.9,8.3,29.9,25.9c0,15.1-11.2,24.1-25.9,24.1
				c-16.2,0-26.1-12.4-26.1-26.8C320.9,242.9,290.5,242.9,290.5,242.9z"/>
			<path class="st0" d="M234.2,294.4c20.5-1.8,37.8-9,52.4-25.6c14.9-16.7,22.5-39.2,22.5-61.4c0-24.5-7.9-48.1-24.8-65.5
				c-14.9-15.1-30.8-21.1-50.2-22.7v30.4c9.7,1.4,18.2,5,26.3,13.1c10.8,11.7,15.3,29,15.3,44.8c0,14.2-4.7,30.6-14.2,41.6
				c-7.9,9-17.1,13.1-27.4,14.6V294.4z M139.7,294.9h83c3.8,0,7.9-0.2,11.5-0.4v-30.6c-4.9,0.9-10.1,0.9-15.3,0.9h-26.3V148.8h27
				c5.2,0,10.1,0.2,14.9,0.9v-30.4c-3.6-0.2-7.2-0.2-11-0.2h-83.7v28.1h19.1v119.9h-19.1V294.9z"/>
		</g>
		<polygon class="st1" points="150.3,217.5 58.7,217.5 41.4,243.1 151.4,243.1 151.4,217.5 		"/>
	</g>
</g>
</svg>
