<?xml version="1.0" encoding="utf-8"?>
<!-- Generator: Adobe Illustrator 19.2.1, SVG Export Plug-In . SVG Version: 6.00 Build 0)  -->
<svg version="1.1" id="Layer_1" xmlns="http://www.w3.org/2000/svg" xmlns:xlink="http://www.w3.org/1999/xlink" x="0px" y="0px"
	 viewBox="0 0 294.5 114.3" style="enable-background:new 0 0 294.5 114.3;" xml:space="preserve">
<style type="text/css">
	.st0{fill:#FFFFFF;}
	.st1{fill:#9BCD65;}
</style>
<g>
	<g>
		<g>
			<path class="st0" d="M274.2,99.2c1.9,0,3.5-1.5,3.5-3.6c0-2-1.7-3.5-3.5-3.5l0,0v0.6l0,0c1.6,0,2.8,1.3,2.8,2.9
				c0,1.7-1.2,3-2.8,3l0,0V99.2L274.2,99.2L274.2,99.2z M274.2,95.9v-0.6c0.5,0,0.9,0,0.9-0.6c0-0.5-0.4-0.6-0.9-0.6h-0.1v-0.6h0.1
				c1,0,1.4,0.4,1.4,1.2c0,0.7-0.4,1-1,1.1l1.1,1.8h-0.6L274.2,95.9z M274.2,92.1c-1.9,0-3.6,1.4-3.6,3.5c0,2.1,1.7,3.6,3.6,3.6
				v-0.6c-1.6,0-2.9-1.2-2.9-3c0-1.6,1.3-2.9,2.9-2.9V92.1L274.2,92.1z M274.2,93.5v0.6h-0.8v1.2h0.8l0,0v0.6l-0.1-0.1h-0.7v1.8
				h-0.6v-4.1H274.2z"/>
			<polygon class="st0" points="22.5,24.3 25,24.3 25,20.5 35.9,20.5 35.9,24.3 38.4,24.3 38.4,20.5 49.3,20.5 49.3,24.3 51.8,24.3 
				51.8,20.5 62.7,20.5 62.7,24.3 65.2,24.3 65.2,20.5 76,20.5 76,24.3 78.5,24.3 78.5,20.5 89.4,20.5 89.4,24.3 91.9,24.3 
				91.9,20.5 102.8,20.5 102.8,24.3 105.3,24.3 105.3,20.5 116.2,20.5 116.2,24.3 118.7,24.3 118.7,20.5 129.5,20.5 129.6,24.3 
				132,24.3 132,20.5 142.8,20.5 127.4,43.5 127.4,26.1 124,26.1 124,48.4 118.6,56.6 118.6,51.3 114,51.3 114,26.1 110.5,26.1 
				110.5,64.2 105.3,64.2 105.3,51.3 100.6,51.3 100.6,26.1 97.2,26.1 97.2,64.2 91.9,64.2 91.9,51.3 87.2,51.3 87.2,26.1 
				83.8,26.1 83.8,64.2 78.5,64.2 78.5,51.3 73.9,51.3 73.9,26.1 70.4,26.1 70.4,64.2 65.2,64.2 65.2,51.3 60.5,51.3 60.5,26.1 
				57.1,26.1 57.1,64.2 51.8,64.2 51.8,51.3 47.1,51.3 47.1,26.1 43.7,26.1 43.7,64.2 38.4,64.2 38.4,51.3 33.8,51.3 33.8,26.1 
				30.3,26.1 30.3,64.2 25,64.2 25,51.3 20.4,51.3 20.4,26.1 16.9,26.1 16.9,64.2 11.7,64.2 11.7,20.5 22.5,20.5 			"/>
			<polygon class="st0" points="16.9,94.2 22.5,94.2 22.5,98.3 11.7,98.3 11.7,75.6 16.9,75.6 			"/>
			<polygon class="st0" points="30.3,94.2 36.1,94.2 36.1,98.3 25,98.3 25,92.7 22.5,92.7 22.5,75.6 30.3,75.6 			"/>
			<polygon class="st0" points="43.7,94.2 49.3,94.2 49.3,98.3 38.4,98.3 38.4,92.7 35.9,92.7 35.9,75.6 43.7,75.6 			"/>
			<polygon class="st0" points="57.1,94.2 62,94.2 62,98.3 51.8,98.3 51.8,92.7 49.3,92.7 49.3,75.6 57.1,75.6 			"/>
			<polygon class="st0" points="70.4,94.2 76,94.2 76,98.3 65.2,98.3 65.2,92.7 62.7,92.7 62.7,75.6 70.4,75.6 			"/>
			<polygon class="st0" points="83.6,94.2 89,94.2 89.1,98.3 78.8,98.3 78.8,92.7 76,92.7 76,75.6 83.6,75.6 			"/>
			<polygon class="st0" points="97.2,81.7 97.3,81.4 101.2,75.6 105.7,75.6 91.4,97.2 91.4,92.7 89,92.7 89,75.6 97.2,75.6 			"/>
			<polygon class="st0" points="159.2,79.9 123.7,79.9 119.6,86.1 127.3,86.1 127.2,98.3 95.2,98.3 110.3,75.6 159.2,75.6 			"/>
			<polygon class="st0" points="147.5,20.5 118,64.2 159.2,64.2 159.2,60.2 136.9,60.2 155.5,32.9 155.5,20.5 			"/>
			<path class="st0" d="M221,75.5v23.2h11.8v-5.2c3.7,4.6,9,6.7,15,6.7c14.3,0,24.8-10.4,24.8-24.6c0-6.6-2.8-12.4-7.8-16.4
				c-5-3.8-10.7-5.5-16.8-7.1c-6-1.7-12.8-3.4-12.8-11c0-6.2,4.8-9.8,10.7-9.8s10.1,4.4,10.2,10.2h13.4V20.5H258v4.4
				c-3.3-4.2-8.6-6-13.9-6c-12.6,0-23.7,9.6-23.7,22.5c0,7.1,3,13,8.6,17.1c4.8,3.7,9.6,5,15.3,6.7c6,1.8,13.3,3.7,13.3,11.5
				c0,6.7-5,10.7-11.5,10.7c-7.2,0-11.6-5.5-11.6-11.9H221z"/>
			<path class="st0" d="M196,98.4c9.1-0.8,16.8-4,23.3-11.4c6.6-7.4,10-17.4,10-27.3c0-10.9-3.5-21.4-11-29.1
				c-6.6-6.7-13.7-9.4-22.3-10.1v13.5c4.3,0.6,8.1,2.2,11.7,5.8c4.8,5.2,6.8,12.9,6.8,19.9c0,6.3-2.1,13.6-6.3,18.5
				c-3.5,4-7.6,5.8-12.2,6.5V98.4z M154,98.6h36.9c1.7,0,3.5-0.1,5.1-0.2V84.8c-2.2,0.4-4.5,0.4-6.8,0.4h-11.7V33.7h12
				c2.3,0,4.5,0.1,6.6,0.4V20.6c-1.6-0.1-3.2-0.1-4.9-0.1H154v12.5h8.5v53.3H154V98.6z"/>
		</g>
		<polygon class="st1" points="158.7,64.2 11.7,64.2 11.7,75.6 159.2,75.6 159.2,64.2 		"/>
	</g>
</g>
</svg>
