<?xml version="1.0" encoding="utf-8"?>
<!-- Generator: Adobe Illustrator 19.2.1, SVG Export Plug-In . SVG Version: 6.00 Build 0)  -->
<svg version="1.1" id="Layer_1" xmlns="http://www.w3.org/2000/svg" xmlns:xlink="http://www.w3.org/1999/xlink" x="0px" y="0px"
	 viewBox="0 0 960 367" style="enable-background:new 0 0 960 367;" xml:space="preserve">
<style type="text/css">
	.st0{fill:#E3AA38;}
</style>
<path d="M244.3,271.4c0,33.3-15.2,57.9-45.5,73.9c-14.7,7.8-35.7,12.7-63.1,14.7c-7.5,0.3-29.7,0.5-66.6,0.5H9.3
	c-5.6,0-8.3-1.4-8.3-4.2c0-2.8,5.1-4.2,15.2-4.2c11.7,0,18.7-1.2,20.8-3.7c2.1-2.4,3.2-9.9,3.2-22.3V61.4c0-14.4-0.6-22.7-1.9-25
	c-2.3-3.9-10.6-6-25-6.4C4.4,30,0,28.3,0,24.9c0-3.1,4.1-4.6,12.2-4.6c0.3,0,2.3,0,5.9,0c3.6,1,6.9,1.5,9.8,1.5h95.5
	c35.3,0.3,61.5,6.2,78.8,17.6c20.2,13.4,30.4,32.8,30.4,58.3c0,22.2-8.3,40.4-25,54.6c-16.6,14.2-40,23.1-70,26.7v2.9
	c29.7,1.9,52.9,8.2,69.5,18.6C231.9,216.1,244.3,239.8,244.3,271.4z M178.7,102.5c0-31.3-7.2-52.2-21.5-62.7
	c-7.5-5.5-21.7-8.3-42.6-8.3c-5.6,0-14.2,0.5-26,1.5v142H93l26.9-1c18.6-0.6,33-7.3,43.3-19.8C173.5,141.6,178.7,124.4,178.7,102.5z
	 M192.9,266c0-41.1-16.7-66.6-49.9-76.4c-9.8-2.9-27.9-4.4-54.3-4.4v145.9c0,9.5,1,14.9,2.9,16.2c3.3,2.3,12.4,3.4,27.4,3.4
	c22.5,0,40.5-7.2,53.8-21.5C186.2,314.8,192.9,293.8,192.9,266z"/>
<path d="M599.9,186.7c0,48.7-14.6,89.8-43.8,123.4c-29.2,33.6-65,50.4-107.5,50.4c-45,0-82.9-17.1-113.6-51.2
	c-30.7-34.1-46-76.1-46-126.1c0-50.9,14.8-92.6,44.3-125.1c29.5-32.5,67.3-48.7,113.3-48.7c43.4,0,79.8,17,109.2,50.9
	C585.2,94.3,599.9,136.4,599.9,186.7z M545.1,189.2c0-59.9-12.2-106.6-36.7-139.9c-15.4-21-36.7-31.4-64.1-31.4
	c-26.1,0-46.4,8-60.7,24.1c-26.4,29.5-39.7,77.4-39.7,143.9c0,52.7,9.2,93.6,27.7,122.8c18.5,29.1,44.3,43.7,77.6,43.7
	c31,0,54.3-13.8,70-41.2C536.4,280.5,545.1,239.9,545.1,189.2z"/>
<path class="st0" d="M960,251.8c0,2.6-1.5,3.9-4.4,3.9h-11.3c-15-0.7-23.5,1.9-25.5,7.8c-1.3,3.9-1.9,18.1-1.9,42.4v15.6
	c-16.7,14.3-32.7,24.4-48.2,30.2c-15.5,5.8-34,8.8-55.6,8.8c-51.6,0-92.5-15.4-122.9-46.3c-30.4-30.8-45.5-72.7-45.5-125.6
	c0-53.5,14.8-96.8,44.5-129.7c29.7-33,68.9-49.5,117.5-49.5c21.2,0,44.4,5.9,69.5,17.6c7.5,3.6,13.7,5.4,18.6,5.4
	c6.2,0,10.3-3.9,12.2-11.7c1.6-4.6,3.6-6.9,5.9-6.9c2.6,0,3.9,1.3,3.9,3.9c0,1-0.3,4.4-0.9,10.3c-1.7,18.6-2.6,32-2.6,40.2v31.8
	c0.3,11.4,0.5,16.5,0.5,15.2c-0.7,7.8-2.8,11.8-6.4,11.8c-2.9,0-4.6-2.3-4.9-6.9c-1.6-31.8-10.8-56.8-27.4-75
	c-16.6-18.2-38.5-27.3-65.6-27.3c-34,0-60.8,15.2-80.5,45.7c-19.8,30.4-29.6,71.8-29.6,124.2c0,50.4,10,90.4,30.1,120.1
	c20.1,29.6,47.3,44.4,81.5,44.4c26.1,0,44.1-7.5,53.9-22.4c4.9-7.5,7.3-21,7.3-40.5c0-16.2-1.6-25.8-4.7-28.8
	c-3.1-2.9-13.8-4.2-32.1-3.9c-4.6,0-7.5-0.2-8.8-0.7c-1.3-0.5-2-1.5-2-3.2c0-3.6,3.6-5.4,10.8-5.4h8.8c4.9,0.3,22.2,0.3,51.9,0h41.1
	c2.3,0,4.7,0,7.4,0c2.6,0,4.4,0,5.4,0C956.7,247.4,960,248.9,960,251.8z"/>
</svg>
