<?xml version="1.0" encoding="utf-8"?>
<!-- Generator: Adobe Illustrator 19.2.1, SVG Export Plug-In . SVG Version: 6.00 Build 0)  -->
<svg version="1.1" id="Layer_1" xmlns="http://www.w3.org/2000/svg" xmlns:xlink="http://www.w3.org/1999/xlink" x="0px" y="0px"
	 viewBox="0 0 200 200" style="enable-background:new 0 0 200 200;" xml:space="preserve">
<style type="text/css">
	.st0{fill:#E3AA38;}
</style>
<path class="st0" d="M178.8,133.4c0,1.3-0.7,2-2.2,2H171c-7.5-0.3-11.8,1-12.7,3.9c-0.7,1.9-1,9-1,21.2v7.8
	c-8.3,7.1-16.4,12.2-24.1,15.1c-7.8,2.9-17,4.4-27.8,4.4c-25.8,0-46.3-7.7-61.4-23.1c-15.2-15.4-22.8-36.4-22.8-62.8
	c0-26.8,7.4-48.4,22.3-64.9c14.9-16.5,34.4-24.7,58.8-24.7c10.6,0,22.2,2.9,34.8,8.8c3.8,1.8,6.9,2.7,9.3,2.7c3.1,0,5.1-2,6.1-5.9
	c0.8-2.3,1.8-3.4,2.9-3.4c1.3,0,2,0.7,2,2c0,0.5-0.1,2.2-0.4,5.1c-0.9,9.3-1.3,16-1.3,20.1v15.9c0.2,5.7,0.2,8.2,0.2,7.6
	c-0.3,3.9-1.4,5.9-3.2,5.9c-1.5,0-2.3-1.2-2.4-3.4c-0.8-15.9-5.4-28.4-13.7-37.5c-8.3-9.1-19.3-13.6-32.8-13.6
	c-17,0-30.4,7.6-40.3,22.8c-9.9,15.2-14.8,35.9-14.8,62.1c0,25.2,5,45.2,15.1,60c10,14.8,23.6,22.2,40.8,22.2
	c13.1,0,22-3.7,26.9-11.2c2.4-3.7,3.7-10.5,3.7-20.2c0-8.1-0.8-12.9-2.3-14.4c-1.6-1.5-6.9-2.1-16-1.9c-2.3,0-3.7-0.1-4.4-0.4
	c-0.7-0.2-1-0.8-1-1.6c0-1.8,1.8-2.7,5.4-2.7h4.4c2.4,0.2,11.1,0.2,25.9,0h20.6c1.1,0,2.4,0,3.7,0c1.3,0,2.2,0,2.7,0
	C177.2,131.2,178.8,132,178.8,133.4z"/>
</svg>
